<svg width="41" height="75" viewBox="0 0 41 75" fill="none" xmlns="http://www.w3.org/2000/svg">
<path d="M21.9375 39.0312H10.25L10.1875 32.5938H20C21.7292 32.5938 23.1458 32.375 24.25 31.9375C25.3542 31.4792 26.1771 30.8229 26.7188 29.9688C27.2812 29.0938 27.5625 28.0312 27.5625 26.7812C27.5625 25.3646 27.2917 24.2188 26.75 23.3438C26.2292 22.4688 25.4062 21.8333 24.2812 21.4375C23.1771 21.0417 21.75 20.8438 20 20.8438H13.5V59H4.125V13.5H20C22.6458 13.5 25.0104 13.75 27.0938 14.25C29.1979 14.75 30.9792 15.5104 32.4375 16.5312C33.8958 17.5521 35.0104 18.8438 35.7812 20.4062C36.5521 21.9479 36.9375 23.7812 36.9375 25.9062C36.9375 27.7812 36.5104 29.5104 35.6562 31.0938C34.8229 32.6771 33.5 33.9688 31.6875 34.9688C29.8958 35.9688 27.5521 36.5208 24.6562 36.625L21.9375 39.0312ZM21.5312 59H7.6875L11.3438 51.6875H21.5312C23.1771 51.6875 24.5208 51.4271 25.5625 50.9062C26.6042 50.3646 27.375 49.6354 27.875 48.7188C28.375 47.8021 28.625 46.75 28.625 45.5625C28.625 44.2292 28.3958 43.0729 27.9375 42.0938C27.5 41.1146 26.7917 40.3646 25.8125 39.8438C24.8333 39.3021 23.5417 39.0312 21.9375 39.0312H12.9062L12.9688 32.5938H24.2188L26.375 35.125C29.1458 35.0833 31.375 35.5729 33.0625 36.5938C34.7708 37.5938 36.0104 38.8958 36.7812 40.5C37.5729 42.1042 37.9688 43.8229 37.9688 45.6562C37.9688 48.5729 37.3333 51.0312 36.0625 53.0312C34.7917 55.0104 32.9271 56.5 30.4688 57.5C28.0312 58.5 25.0521 59 21.5312 59Z" fill="black"/>
<line x1="1" y1="72.5" x2="39" y2="72.5" stroke="black" stroke-width="5"/>
</svg>
